# xmcd
#
# Track frame offsets: 
#        150
#        16045
#        31974
#        51414
#        78832
#        95493
#        108451
#        121201
#        148132
#        159642
#        174582
#        188452
#        204725
#        219543
#        238295
#        252324
#        274131
#
# Disc length: 3845 seconds
#
# Revision: 0
# Processed by: cddbd v1.5.2PL0 Copyright (c) Steve Scherf et al.
# Submitted via: ExactAudioCopyFreeDBPlugin 1.0
#
DISCID=f00f0311
DTITLE=Various Artist - Tango Amor
DYEAR=2011
DGENRE=Tango
TTITLE0=Marcelo Alvarez - Soledad
TTITLE1=Erwin Schrott - Chiquilin de Bachin
TTITLE2=Jan Vogler - Oblivion
TTITLE3=Yo-Yo Ma - Regreso al amor
TTITLE4=Amelita Baltar - El Gordo Triste
TTITLE5=Jorge Falcon - Pasional
TTITLE6=John Williams - Tango
TTITLE7=Lothar Hensel - Youkali
TTITLE8=Jozsef Lendvay - Liebertango
TTITLE9=Nelly Omar - Tapera
TTITLE10=Nestor Fabian - Malena
TTITLE11=Trio Federico Berlinglieri - Sentimiento Tanguero
TTITLE12=Emanuel Ax and Pablo Ziegler - Revirado
TTITLE13=Marcelo Álvarez - Volver
TTITLE14=Sally Potter and Yo-Yo-Ma - I Am You
TTITLE15=Slava Grigorya - Verano Porteno
TTITLE16=Marcelo Álvarez and Carlos Gardel - Mi Buenos Aires Querido
EXTD=
EXTT0=
EXTT1=
EXTT2=
EXTT3=
EXTT4=
EXTT5=
EXTT6=
EXTT7=
EXTT8=
EXTT9=
EXTT10=
EXTT11=
EXTT12=
EXTT13=
EXTT14=
EXTT15=
EXTT16=
PLAYORDER=
